<svg width="1080" height="1080" viewBox="0 0 1080 1080" fill="none" xmlns="http://www.w3.org/2000/svg">
<path d="M122.814 673L39.71 413.3H129.863L197.014 632.561H151.752L222.984 413.3H303.491L369.9 632.561H326.493L396.612 413.3H479.716L396.612 673H302.749L248.583 493.436H273.811L216.677 673H122.814ZM461.543 673L575.069 413.3H661.141L774.667 673H684.143L600.297 454.852H634.429L550.583 673H461.543ZM529.065 627.738L551.325 564.668H670.787L693.047 627.738H529.065ZM788.64 673V413.3H913.667C937.906 413.3 958.806 417.257 976.366 425.172C994.174 433.087 1007.9 444.464 1017.55 459.304C1027.19 473.897 1032.02 491.21 1032.02 511.244C1032.02 531.278 1027.19 548.591 1017.55 563.184C1007.9 577.777 994.174 589.154 976.366 597.316C958.806 605.231 937.906 609.188 913.667 609.188H837.241L876.196 571.717V673H788.64ZM876.196 581.363L837.241 541.666H908.102C920.222 541.666 929.126 538.945 934.814 533.504C940.75 528.063 943.718 520.643 943.718 511.244C943.718 501.845 940.75 494.425 934.814 488.984C929.126 483.543 920.222 480.822 908.102 480.822H837.241L876.196 441.125V581.363Z" fill="#A3E635"/>
<line x1="104" y1="987" x2="976" y2="987" stroke="#A3E635" stroke-width="20"/>
<line x1="976" y1="90" x2="104" y2="90.0001" stroke="#A3E635" stroke-width="20"/>
<line x1="114" y1="997" x2="114" y2="719" stroke="#A3E635" stroke-width="20"/>
<line x1="966" y1="80" x2="966" y2="358" stroke="#A3E635" stroke-width="20"/>
<line x1="966" y1="997" x2="966" y2="719" stroke="#A3E635" stroke-width="20"/>
<line x1="114" y1="80" x2="114" y2="358" stroke="#A3E635" stroke-width="20"/>
</svg>
